# xmcd
#
# Track frame offsets:
#	150
#	18709
#	65463
#	108764
#	145204
#	163792
#	187141
#	211946
#	241728
#	275280
#	299927
#	320549
#
# Disc length: 4503 seconds
#
# Revision: 1
# Processed by: cddbd v1.5.1PL2 Copyright (c) Steve Scherf et al.
# Submitted via: audiograbber 1.83.01
#
DISCID=ba11950c
DTITLE=Phil Guy - Funky Booty
DYEAR=1900
DGENRE=Blues
TTITLE0=Funky Booty
TTITLE1=Miss You
TTITLE2=Good Time Charlie
TTITLE3=Red Rooster
TTITLE4=Skin And Bones
TTITLE5=I Once Was A Gambler
TTITLE6=It's A Real Mutha Fucka!
TTITLE7=Where Can I Go?
TTITLE8=Breaking Out On Top
TTITLE9=Stone Crazy
TTITLE10=Garbage Man Blues
TTITLE11=Wine Head
EXTD=
EXTT0=
EXTT1=
EXTT2=
EXTT3=
EXTT4=
EXTT5=
EXTT6=
EXTT7=
EXTT8=
EXTT9=
EXTT10=
EXTT11=
PLAYORDER=
